<svg width="58" height="65" viewBox="0 0 58 65" fill="none" xmlns="http://www.w3.org/2000/svg">
<g filter="url(#filter0_d_5273_2209)">
<path d="M53.8638 31.12C53.8638 32.1809 53.4423 33.1983 52.6921 33.9485C51.942 34.6986 50.9246 35.12 49.8638 35.12C49.6526 35.1149 49.4422 35.0949 49.2339 35.0601H49.0337C45.7154 34.4837 42.6311 32.9708 40.1438 30.7L43.8938 22.8199C44.6195 23.9761 45.5837 24.9642 46.7219 25.7178C47.8601 26.4714 49.1461 26.9732 50.4939 27.1899C51.437 27.3399 52.2954 27.8224 52.9138 28.55C53.5232 29.2682 53.8595 30.1782 53.8638 31.12Z" fill="black"/>
<path d="M25.4539 41.05C24.3966 41.8734 23.245 42.5682 22.0238 43.12C19.418 44.2618 16.5988 44.8346 13.754 44.8C11.3846 44.8068 9.02673 44.47 6.754 43.8C5.75405 43.4722 4.92353 42.7636 4.44247 41.8276C3.96141 40.8917 3.86849 39.804 4.18393 38.8C4.39676 38.1486 4.77337 37.5628 5.27768 37.0988C5.78199 36.6347 6.39696 36.308 7.06381 36.15C8.78381 35.74 10.4439 36.6201 12.1239 36.8101C13.9226 37.0097 15.7433 36.8395 17.474 36.3101C18.5606 35.9916 19.5781 35.4726 20.474 34.78C20.7177 35.5731 21.0533 36.335 21.474 37.05C22.4638 38.6808 23.8282 40.052 25.4539 41.05Z" fill="black"/>
<path d="M52.4237 54.82C52.4237 55.2178 52.2656 55.5993 51.9843 55.8806C51.703 56.162 51.3215 56.32 50.9237 56.32H18.9237C18.5259 56.32 18.1442 56.162 17.8629 55.8806C17.5816 55.5993 17.4237 55.2178 17.4237 54.82C17.4237 54.4222 17.5816 54.0407 17.8629 53.7594C18.1442 53.4781 18.5259 53.32 18.9237 53.32H38.9237C39.1537 53.32 39.2338 53.26 39.2138 53C39.1434 51.5018 38.9832 50.0091 38.7338 48.5301C38.4033 46.7886 37.7667 45.1194 36.8537 43.6C36.348 42.7796 35.736 42.0298 35.0336 41.37C34.8036 41.16 34.5536 40.95 34.2936 40.74C33.3333 39.9892 32.2461 39.4169 31.0836 39.0501C28.5936 38.2101 26.3537 37.4101 24.9337 35.0501C24.4119 34.1755 24.0792 33.2013 23.9569 32.1902C23.8346 31.1792 23.9255 30.1538 24.2238 29.1801C24.5638 28.3001 25.0738 27.44 25.4838 26.59L28.8336 19.51C28.9236 19.32 29.4537 17.78 29.6737 17.73C28.8547 17.8879 28.049 18.1086 27.2638 18.39C24.5119 19.4249 21.9905 20.9913 19.8436 23C19.4536 23.352 18.9981 23.6238 18.5031 23.7997C18.008 23.9756 17.4833 24.0522 16.9586 24.0253C16.434 23.9984 15.9196 23.8684 15.4452 23.6427C14.9708 23.417 14.5457 23.1001 14.1937 22.71C13.8417 22.32 13.5699 21.8646 13.3939 21.3695C13.218 20.8745 13.1414 20.3497 13.1684 19.825C13.1953 19.3003 13.3252 18.7861 13.5509 18.3117C13.7766 17.8373 14.0937 17.412 14.4838 17.0601C17.403 14.3552 20.824 12.2488 24.5536 10.86C27.2012 9.896 29.996 9.39866 32.8136 9.39005C34.227 9.38748 35.6372 9.52485 37.0236 9.80008C37.3933 9.82725 37.7572 9.90809 38.1037 10.0401C38.5743 10.1093 39.0347 10.2369 39.4738 10.4201C40.9417 11.0341 42.1055 12.2061 42.7094 13.6783C43.3132 15.1504 43.3076 16.8021 42.6937 18.2701L42.3937 18.99L35.9638 32.5C36.3438 32.68 36.7337 32.87 37.1037 33.07C37.4737 33.27 38.1036 33.68 38.5636 34.01C40.0172 35.0409 41.317 36.2733 42.4237 37.6701C44.6611 40.6185 46.1349 44.0743 46.7138 47.73C47.1094 49.5864 47.1973 51.4952 46.9738 53.38C48.2838 53.38 49.5937 53.38 50.9037 53.38C51.2948 53.3745 51.6725 53.5219 51.9564 53.7909C52.2404 54.0599 52.4081 54.4292 52.4237 54.82Z" fill="black"/>
<path d="M11.6438 53.3199H8.03369C7.63587 53.3199 7.25445 53.4781 6.97314 53.7594C6.69184 54.0407 6.53369 54.4221 6.53369 54.8199C6.53369 55.2178 6.69184 55.5993 6.97314 55.8806C7.25445 56.1619 7.63587 56.3199 8.03369 56.3199H11.6438C12.0416 56.3199 12.423 56.1619 12.7043 55.8806C12.9857 55.5993 13.1438 55.2178 13.1438 54.8199C13.1438 54.4221 12.9857 54.0407 12.7043 53.7594C12.423 53.4781 12.0416 53.3199 11.6438 53.3199Z" fill="black"/>
<path d="M43.1138 9.54C45.7482 9.54 47.8838 7.4044 47.8838 4.77C47.8838 2.1356 45.7482 0 43.1138 0C40.4794 0 38.3438 2.1356 38.3438 4.77C38.3438 7.4044 40.4794 9.54 43.1138 9.54Z" fill="black"/>
</g>
<defs>
<filter id="filter0_d_5273_2209" x="0" y="0" width="57.8638" height="64.3203" filterUnits="userSpaceOnUse" color-interpolation-filters="sRGB">
<feFlood flood-opacity="0" result="BackgroundImageFix"/>
<feColorMatrix in="SourceAlpha" type="matrix" values="0 0 0 0 0 0 0 0 0 0 0 0 0 0 0 0 0 0 127 0" result="hardAlpha"/>
<feOffset dy="4"/>
<feGaussianBlur stdDeviation="2"/>
<feComposite in2="hardAlpha" operator="out"/>
<feColorMatrix type="matrix" values="0 0 0 0 0 0 0 0 0 0 0 0 0 0 0 0 0 0 0.25 0"/>
<feBlend mode="normal" in2="BackgroundImageFix" result="effect1_dropShadow_5273_2209"/>
<feBlend mode="normal" in="SourceGraphic" in2="effect1_dropShadow_5273_2209" result="shape"/>
</filter>
</defs>
</svg>
