<svg width="53" height="55" viewBox="0 0 53 55" fill="none" xmlns="http://www.w3.org/2000/svg">
<path d="M6.03419 18.7032C5.16903 18.251 4.39787 17.6386 3.76212 16.8987C3.127 16.1499 2.70513 15.2446 2.54065 14.2773C2.47618 13.9315 2.44367 13.5805 2.44314 13.2288C2.43561 12.2825 2.6489 11.3474 3.0661 10.4977C3.43375 9.7189 4.07161 9.09951 4.86163 8.75415C5.27442 8.57678 5.71927 8.4855 6.16868 8.48591C7.26016 8.51429 8.30138 8.9492 9.08787 9.70516C9.08787 8.80292 9.01451 7.88848 9.01451 6.99844V6.71804C8.12904 6.28055 7.15662 6.04718 6.16868 6.03523C5.39322 6.03745 4.62551 6.19071 3.90884 6.48638C2.59591 7.0622 1.52789 8.08081 0.891845 9.36377C0.296553 10.5607 -0.00884473 11.8803 0.000194984 13.2166C0.00137203 13.7113 0.0461671 14.205 0.13439 14.6919C0.358716 16.0698 0.949439 17.3624 1.84463 18.4349C3.12476 19.8784 4.7451 20.9805 6.55934 21.6415C8.2937 22.2833 10.0638 22.8248 11.8606 23.2631C12.6766 23.4802 13.4699 23.7741 14.2302 24.141C13.4607 23.068 12.7278 21.9463 12.0437 20.7881C9.96751 20.3238 7.95132 19.6243 6.03419 18.7032Z" fill="white"/>
<path d="M52.1448 9.37597C51.5088 8.09301 50.4408 7.07436 49.1278 6.49854C48.4114 6.20197 47.6436 6.04871 46.868 6.04743C45.8801 6.05939 44.9076 6.29272 44.0222 6.7302C44.0222 6.82774 44.0222 6.9131 44.0222 7.01064C44.0222 7.90069 44.0221 8.81513 43.9366 9.72956C44.7204 8.96954 45.7633 8.53393 46.8558 8.51032C47.309 8.51095 47.7577 8.60212 48.175 8.77852C48.9592 9.12813 49.5919 9.74673 49.9583 10.5221C50.3755 11.3718 50.5888 12.3069 50.5813 13.2532C50.5786 13.6043 50.55 13.9548 50.4957 14.3017C50.3307 15.2688 49.9089 16.174 49.2743 16.9231C48.2471 18.0348 46.9584 18.873 45.5245 19.3616C44.0315 19.9239 42.506 20.3962 40.9563 20.7759C40.2722 21.9342 39.5393 23.0559 38.782 24.1288C39.5381 23.762 40.3274 23.4681 41.1394 23.251C43.5723 22.7164 45.9338 21.8979 48.175 20.8125C49.3186 20.1966 50.3342 19.369 51.1676 18.374C52.051 17.2941 52.6402 16.0048 52.8778 14.6309C52.962 14.1437 53.0027 13.65 52.9998 13.1556C53.0089 11.847 52.7164 10.5538 52.1448 9.37597Z" fill="white"/>
<path d="M37.1696 40.9665H34.7266C33.9066 40.9681 33.0947 40.8049 32.3392 40.4865C31.5837 40.1681 30.9 39.701 30.3292 39.1133C29.2099 37.9739 28.5828 36.4417 28.5826 34.8459C28.5852 33.9701 28.7768 33.1052 29.1444 32.3099C30.4567 29.6135 32.0451 27.0598 33.8839 24.6896C35.5799 22.4946 37.1148 20.1802 38.4766 17.7644C39.2181 16.2272 39.7048 14.5801 39.9179 12.8874C40.2058 10.9296 40.3448 8.95282 40.3333 6.97407C40.3333 4.81601 40.1989 2.74328 40.0402 1.04853C40.0008 0.767767 39.8644 0.509501 39.6549 0.318131C39.4453 0.126761 39.1754 0.0142688 38.8918 0H14.0961C13.8125 0.0142688 13.5426 0.126761 13.333 0.318131C13.1234 0.509501 12.9871 0.767767 12.9477 1.04853C12.7889 2.74328 12.6668 4.81601 12.6668 6.97407C12.6513 8.95251 12.7862 10.9293 13.07 12.8874C13.2831 14.5801 13.7698 16.2272 14.5112 17.7644C15.8774 20.1803 17.4164 22.4947 19.1162 24.6896C20.9508 27.0627 22.5389 29.616 23.8557 32.3099C24.2132 33.0994 24.4004 33.9551 24.4053 34.8215C24.4019 36.4072 23.7799 37.9292 22.6709 39.0645C22.1063 39.6528 21.427 40.1196 20.675 40.4362C19.9229 40.7528 19.114 40.9125 18.2979 40.9056H16.1237C15.4569 40.9115 14.8073 41.1168 14.2586 41.4949C13.71 41.8731 13.2873 42.4068 13.0455 43.0271H40.2355C39.985 42.4201 39.5601 41.9006 39.0146 41.534C38.4691 41.1674 37.8272 40.9699 37.1696 40.9665Z" fill="white"/>
<path d="M42.5685 46.7457H10.456C9.25523 46.7457 8.2818 47.7174 8.2818 48.916V52.8297C8.2818 54.0283 9.25523 55 10.456 55H42.5685C43.7693 55 44.7427 54.0283 44.7427 52.8297V48.916C44.7427 47.7174 43.7693 46.7457 42.5685 46.7457Z" fill="white"/>
</svg>
