<svg width="49" height="51" viewBox="0 0 49 51" fill="none" xmlns="http://www.w3.org/2000/svg">
<path d="M26.1639 29.8299C26.1626 28.1946 26.4837 26.575 27.109 25.0639C27.7342 23.5528 28.6511 22.1799 29.8074 21.0235C30.9638 19.8672 32.3369 18.9501 33.848 18.3249C35.3591 17.6997 36.9785 17.3787 38.6138 17.38C39.3619 17.3835 40.1082 17.4538 40.8438 17.5899C40.5384 17.0911 40.2045 16.6103 39.8438 16.1499C36.5438 12.1499 30.7739 9.06992 26.1539 12.9599C25.7416 13.327 25.3511 13.7177 24.984 14.13C23.9537 15.4525 23.0779 16.8884 22.3738 18.4099C22.2892 18.5879 22.1703 18.7474 22.024 18.8795C21.8777 19.0115 21.7068 19.1135 21.5211 19.1794C21.3353 19.2453 21.1383 19.274 20.9415 19.2638C20.7446 19.2535 20.5518 19.2048 20.3738 19.12C20.1958 19.0353 20.0364 18.9164 19.9044 18.7701C19.7723 18.6238 19.6703 18.4528 19.6043 18.2671C19.5384 18.0813 19.5099 17.8844 19.5201 17.6876C19.5303 17.4908 19.5791 17.2979 19.6639 17.12C19.7539 16.93 19.8439 16.7599 19.9439 16.5799C17.4318 16.5033 14.9433 16.0689 12.5538 15.2899C10.7555 14.6856 9.06699 13.794 7.55378 12.6499C6.02851 13.577 4.67521 14.7612 3.55378 16.1499C-0.706224 21.3699 -0.716204 27.9199 1.3238 34.1499V34.2899C3.4038 40.5199 7.7539 48.7599 14.6839 50.4699C15.8423 50.735 17.0456 50.735 18.2039 50.4699C19.5339 50.1899 20.6038 49.21 22.0538 49.38C23.1238 49.5 24.0538 50.1999 25.0538 50.4799C26.2221 50.775 27.4455 50.775 28.6138 50.4799C32.7338 49.4799 35.9338 46.1399 38.3038 42.2999C35.0507 42.224 31.9571 40.8756 29.6873 38.544C27.4175 36.2125 26.1525 33.0838 26.1639 29.8299Z" fill="black"/>
<path d="M11.6038 11.61C14.3307 12.8918 17.3008 13.5738 20.3137 13.61C20.1366 12.6263 19.8655 11.6618 19.5039 10.73C18.2607 7.43111 15.9334 4.65256 12.9038 2.84998C10.2044 1.28986 7.20529 0.318615 4.10376 0C4.23584 1.5985 4.60322 3.16867 5.19385 4.65991C6.38249 7.69899 8.67053 10.1799 11.6038 11.61Z" fill="black"/>
<path d="M45.3338 36.48C46.2123 35.6036 46.9092 34.5623 47.3845 33.416C47.8599 32.2698 48.1043 31.0409 48.1038 29.8C48.1051 28.5574 47.8611 27.3269 47.3858 26.1789C46.9104 25.0308 46.213 23.988 45.3338 23.11C44.4572 22.2324 43.4157 21.5367 42.2693 21.063C41.1229 20.5894 39.8942 20.3471 38.6538 20.35C37.4119 20.3469 36.1815 20.589 35.0335 21.0627C33.8854 21.5363 32.8423 22.2321 31.9639 23.11C31.0751 23.9887 30.3699 25.0352 29.8892 26.1889C29.4085 27.3425 29.1619 28.5802 29.1638 29.83C29.162 31.0702 29.4048 32.2986 29.8784 33.4449C30.352 34.5911 31.0471 35.6328 31.9238 36.51C32.8018 37.3893 33.8447 38.0866 34.9927 38.5619C36.1407 39.0373 37.3712 39.2812 38.6138 39.2799C39.8636 39.2824 41.1014 39.036 42.2551 38.5553C43.4089 38.0746 44.4554 37.3692 45.3338 36.48ZM38.1038 33.74C37.8381 34.03 37.4692 34.2041 37.0764 34.2246C36.6836 34.2452 36.2985 34.1107 36.0039 33.85L33.5437 31.69C33.2458 31.4263 33.0641 31.0557 33.0379 30.6587C33.0116 30.2618 33.1432 29.8705 33.4038 29.57C33.6675 29.2721 34.0381 29.0903 34.4351 29.0641C34.832 29.0379 35.2234 29.1693 35.5239 29.43L36.8838 30.63L41.7937 25.2899C41.9261 25.1451 42.0858 25.0279 42.2637 24.945C42.4415 24.862 42.634 24.8149 42.8301 24.8065C43.0261 24.7982 43.222 24.8286 43.4063 24.8961C43.5905 24.9637 43.7596 25.0669 43.9038 25.2C44.049 25.3332 44.1664 25.4938 44.2495 25.6725C44.3326 25.8512 44.3796 26.0445 44.388 26.2414C44.3963 26.4382 44.366 26.6348 44.2984 26.8199C44.2307 27.0049 44.1273 27.1749 43.9939 27.32L38.1038 33.74Z" fill="black"/>
</svg>
